<svg width="15" height="15" viewBox="0 0 15 15" fill="none" xmlns="http://www.w3.org/2000/svg">
<path d="M14.7441 2.16952C14.4215 1.28267 13.7236 0.5867 12.8371 0.264038C12.0191 -2.79537e-08 11.2747 0 9.76343 0H5.22485C3.72574 0 2.96869 -2.79537e-08 2.16335 0.249031C1.27457 0.574037 0.576581 1.27517 0.256414 2.16389C0 2.97711 0 3.72702 0 5.22683V9.7727C0 11.28 0 12.0248 0.248914 12.838C0.571424 13.7248 1.26941 14.4208 2.15585 14.7435C2.96869 15 3.71824 15 5.21969 15H9.76812C11.2747 15 12.0243 15 12.832 14.751C13.7207 14.4283 14.4215 13.7276 14.7436 12.8385C15 12.0252 15 11.2753 15 9.77317V5.23949C15 3.73218 15 2.98227 14.7436 2.16905L14.7441 2.16952ZM10.8889 5.06644L10.3053 5.64798C10.1881 5.75538 10.0077 5.75772 9.88765 5.65267C9.32373 5.179 8.61074 4.9173 7.87571 4.91496C7.26773 4.91496 6.66208 5.11521 6.66208 5.67237C6.66208 6.23421 7.31132 6.42227 8.06088 6.7032C9.37435 7.1431 10.461 7.69228 10.461 8.97965C10.461 10.3819 9.37436 11.3443 7.59961 11.4493L7.43601 12.2016C7.40648 12.3432 7.28226 12.4436 7.13835 12.4436H6.01753L5.96128 12.4389C5.79534 12.4023 5.69033 12.2363 5.72455 12.0703L5.90034 11.2763C5.22626 11.1079 4.60655 10.7684 4.09841 10.2942V10.2867C3.98122 10.1695 3.98122 9.97905 4.09841 9.86181L4.72327 9.25588C4.84281 9.14614 5.02609 9.14614 5.14329 9.25588C5.71237 9.79333 6.47411 10.0935 7.26257 10.0813C8.07541 10.0813 8.61777 9.73706 8.61777 9.1921C8.61777 8.64714 8.06838 8.5055 7.031 8.11718C5.92987 7.72371 4.88734 7.16702 4.88734 5.86512C4.88734 4.35311 6.14222 3.6154 7.63149 3.54693L7.78759 2.77733C7.81712 2.63569 7.94369 2.53533 8.08807 2.53814H9.19904L9.26232 2.54565C9.42358 2.58223 9.53092 2.7384 9.49436 2.90208L9.32607 3.75938C9.88765 3.9451 10.4197 4.24056 10.8739 4.62653L10.8885 4.64107C11.0057 4.76582 11.0057 4.95388 10.8885 5.06597L10.8889 5.06644Z" fill="white"/>
</svg>
